<mxfile host="app.diagrams.net" modified="2020-11-25T08:23:37.187Z" agent="5.0 (X11; Linux x86_64) AppleWebKit/537.36 (KHTML, like Gecko) Chrome/85.0.4183.102 Safari/537.36" etag="xbMhFUJ-4Ymt69zdi0h5" version="13.10.2" type="github">
  <diagram id="nDueKBrRai6I0L3nU3vx" name="Page-1">
    <mxGraphModel dx="774" dy="754" grid="1" gridSize="10" guides="1" tooltips="1" connect="1" arrows="1" fold="1" page="1" pageScale="1" pageWidth="827" pageHeight="1169" math="0" shadow="0">
      <root>
        <mxCell id="0" />
        <mxCell id="1" parent="0" />
      </root>
    </mxGraphModel>
  </diagram>
</mxfile>
